<?xml version="1.0" standalone="no"?>
<!DOCTYPE svg PUBLIC "-//W3C//DTD SVG 20010904//EN"
 "http://www.w3.org/TR/2001/REC-SVG-20010904/DTD/svg10.dtd">
<svg version="1.0" xmlns="http://www.w3.org/2000/svg"
 width="1536.000000pt" height="1536.000000pt" viewBox="0 0 1536.000000 1536.000000"
 preserveAspectRatio="xMidYMid meet">
<metadata>
Created by potrace 1.14, written by Peter Selinger 2001-2017
</metadata>
<g transform="translate(0.000000,1536.000000) scale(0.100000,-0.100000)"
fill="#000000" stroke="none">
<path d="M7577 12855 c-1 -2 -69 -5 -152 -9 -178 -8 -262 -14 -291 -21 -12 -3
-50 -7 -85 -11 -35 -3 -104 -12 -154 -21 -49 -8 -101 -16 -115 -18 -14 -2 -59
-11 -100 -20 -41 -9 -86 -18 -100 -21 -267 -52 -703 -196 -968 -320 -41 -19
-76 -34 -78 -34 -11 0 -326 -162 -397 -204 -43 -25 -80 -46 -83 -46 -17 0
-387 -249 -518 -350 -321 -245 -687 -611 -932 -930 -126 -163 -290 -408 -398
-595 -74 -127 -269 -529 -320 -657 -90 -230 -199 -565 -220 -678 -2 -14 -14
-65 -26 -115 -12 -49 -24 -103 -26 -120 -3 -16 -9 -52 -15 -80 -18 -93 -25
-138 -33 -210 -3 -22 -10 -80 -16 -130 -44 -363 -44 -875 0 -1235 6 -47 13
-105 16 -130 3 -25 7 -56 9 -70 3 -14 7 -41 10 -60 3 -19 8 -46 10 -60 3 -14
7 -36 10 -50 15 -78 29 -143 45 -210 11 -41 21 -86 24 -100 31 -161 189 -610
288 -820 72 -154 196 -396 218 -425 4 -5 22 -37 40 -70 113 -207 364 -557 575
-801 89 -104 387 -398 500 -495 255 -217 600 -461 819 -578 33 -17 64 -35 70
-40 38 -30 486 -243 611 -290 33 -13 69 -27 80 -32 81 -37 502 -166 605 -186
13 -2 61 -13 106 -23 45 -11 96 -22 113 -25 46 -8 84 -14 106 -19 33 -6 98
-17 130 -21 17 -2 74 -9 129 -15 54 -6 108 -13 119 -16 133 -25 912 -25 1102
1 17 3 55 7 85 10 30 3 66 8 80 10 14 2 45 7 70 10 123 16 342 58 495 96 573
143 1102 379 1614 722 122 81 329 231 384 277 12 10 76 63 142 117 178 148
460 421 576 558 19 22 39 45 45 50 26 25 130 151 223 270 l100 130 1 1218 c0
967 -3 1217 -12 1218 -7 0 -1080 1 -2384 1 l-2371 1 1 1686 1 1686 880 1 c871
1 880 1 925 22 95 44 154 133 152 229 -2 112 -77 206 -190 239 -52 16 -228 17
-2092 17 -1119 0 -2057 -3 -2085 -7 -140 -21 -238 -135 -230 -268 6 -90 60
-163 155 -207 l55 -25 932 -1 933 0 0 -2950 0 -2950 -928 -1 -927 -1 -57 -22
c-100 -39 -176 -154 -163 -250 l4 -34 -42 39 c-446 420 -784 891 -1044 1459
-75 163 -166 406 -204 545 -38 136 -87 334 -93 375 -3 22 -11 63 -16 90 -14
72 -19 104 -25 155 -3 25 -10 77 -15 116 -31 240 -34 834 -5 1004 2 14 7 50
10 80 4 30 8 66 10 80 2 14 7 45 10 70 4 25 18 101 32 170 13 69 26 134 29
145 28 144 139 483 225 689 52 125 192 409 233 474 12 20 38 63 55 96 83 149
263 404 415 586 173 207 438 464 661 641 443 350 1011 643 1545 798 109 31
337 85 402 95 21 3 57 10 80 15 24 5 66 12 93 15 60 8 131 17 165 21 98 14
266 20 520 20 294 0 409 -6 595 -32 28 -4 55 -7 60 -8 16 -2 129 -19 135 -20
3 -1 28 -5 55 -9 28 -4 84 -16 125 -26 41 -11 87 -21 102 -24 52 -9 255 -69
383 -113 260 -90 498 -203 760 -359 99 -60 182 -111 185 -114 3 -3 48 -34 100
-69 365 -246 700 -545 1019 -909 66 -75 225 -273 245 -304 6 -10 15 -18 21
-18 5 0 44 33 85 72 41 39 146 139 234 222 87 83 170 161 184 173 l25 21 -53
74 c-79 108 -278 354 -356 439 -77 84 -336 343 -404 404 -267 241 -635 501
-964 681 -82 45 -402 204 -411 204 -2 0 -28 11 -57 25 -167 77 -542 206 -757
259 -138 35 -363 81 -441 91 -25 3 -52 8 -60 10 -8 2 -35 7 -60 10 -25 3 -61
8 -80 10 -31 4 -100 12 -185 20 -130 13 -637 28 -648 20z m3858 -7081 l-1
-774 -64 -87 c-212 -286 -535 -604 -837 -825 -566 -412 -1183 -677 -1918 -824
-22 -5 -139 -24 -170 -29 -169 -24 -208 -28 -395 -42 -184 -13 -689 -6 -790
11 -14 3 -69 10 -124 16 -54 7 -108 14 -120 16 -11 2 -50 9 -86 15 -74 13
-133 24 -170 33 -14 3 -47 11 -75 17 -464 105 -972 323 -1410 607 -120 77
-324 224 -325 234 0 3 924 6 2054 6 1130 0 2069 3 2087 7 18 4 49 16 69 26
207 108 162 411 -70 465 -19 4 -422 8 -895 8 l-860 1 -2 935 c-1 514 0 940 2
946 2 8 549 12 2052 12 l2048 1 0 -775z"/>
</g>
</svg>
